<svg xmlns="http://www.w3.org/2000/svg" viewBox="0 0 951.81 246.64"><defs><style>.cls-1{fill:#e50848;}.cls-2{fill:#eb0548;}.cls-3{fill:#e00a48;}.cls-4{fill:#040302;}.cls-5{fill:#120204;}.cls-6{fill:#2b0208;}</style></defs><title>Asset 1</title><g id="Layer_2" data-name="Layer 2"><g id="Layer_1-2" data-name="Layer 1"><path class="cls-1" d="M434.52,125.08c-2.17,8-3,16,.32,24.56-2.77.24-4.84.55-6.91.56-9.17,0-18.33-.2-27.48,0-4.85.14-5.65-1.43-4.41-5.92,4.09-14.88,7.82-29.87,11.67-44.83.31-1.22.41-2.5.82-5.08-6,0-11.42-.18-16.8.14-1.12.07-2.75,1.84-3.09,3.11-4.24,15.87-8.19,31.81-12.5,47.65-.49,1.82-2.63,4.48-4.1,4.54-10.27.39-20.57.21-31.7.21,1.7-6.41,3.22-12.11,4.72-17.81L364,60.48c3.06-11.71,6.43-23.37,8.71-35.24,1.31-6.86.89-14.09.89-21.16,0-2.69.41-4,3.39-4,21,.07,42,0,63,.24,3.51,0,7,1.79,10.51,2.76,4.38,5.09,8.78,10.18,8.38,17.57-.17,3.12-.25,6.25-.38,9.37q-1.89,8-3.79,16a6.34,6.34,0,0,1-.14,1l-3.86,15-.15,1q-1,3-2,5.92h0l-7.2,3.85a.88.88,0,0,0-.74.24l-3.3,1.73a.7.7,0,0,0-.68.29c-3,.14-5.37,1.42-3.25,4.47,2.65,3.8,6.19,7,9.35,10.43l-.11,3Q438.5,109.06,434.52,125.08ZM398.65,63.15c5,0,9.75-.15,14.5.05,3,.12,4.49-1.08,5.21-4,1.83-7.38,3.94-14.7,5.8-22.08,1.94-7.67.07-9.95-7.88-9.92-1.66,0-3.33.14-5,0-3-.26-4.56,1-5.31,3.9-2.36,9.3-4.91,18.55-7.3,27.84A21.84,21.84,0,0,0,398.65,63.15Z"/><path class="cls-2" d="M16.24,101.72a.68.68,0,0,1,.18-.65c1.34-2.25,3.22-4.35,3.93-6.78C22.12,88.24,23.2,82,24.87,75.9s3.93-12,5.52-18c1.68-6.42,1.67-13.56,4.55-19.31,4.16-8.3,5.21-17.82,12.81-25C53.62,8,60,4.14,67,3.5c18.25-1.65,36.65-1.85,55-2.16,6.83-.12,13.68,1.13,20.53,1.63,1.24.09,2.52-.5,3.79-.7s2.39-.28,3.59-.42c-.19,1.19-.38,2.38-.56,3.57-.27,1.77-.57,3.53-.79,5.31a58.1,58.1,0,0,1-.66,5.88c-1,4.44-2.77,8.76-3.3,13.23C143.48,39,141.47,41.1,132.23,41.1c-11.5,0-23-.18-34.5.1-3.86.09-7.15-1.81-11.66-.5-10.4,3-12.34,4.18-13.65,15.25A78.69,78.69,0,0,1,70,68.28C67,78.67,63.58,89,60.61,99.34c-2.18,7.61-3.94,15.33-5.88,23-.76,3-1.59,6-2.22,9-.89,4.3-1.22,8.76-2.53,12.91-1.94,6.18.89,10.73,7.33,10.81A104.7,104.7,0,0,0,68.79,155c1.91-.2,4.63-1.2,5.33-2.65,1.43-3,1.67-6.45,2.53-9.7,2.59-9.81,5.27-19.61,7.86-29.42,1.53-5.79,3-11.58,4.39-17.42a158,158,0,0,0,3.38-17.07c.33-2.87-.94-5.93-1.54-9.21h43.82c-.18,2.75,0,5.12-.55,7.32-1.7,7.09-3.67,14.11-5.53,21.16-1.31,5-2.91,9.94-3.84,15-1.12,6-5.57,11.27-4.32,17.89.13.67-.62,1.47-.87,2.24-1,3.07-2.06,6.14-2.92,9.26-1.21,4.34-2.47,8.69-3.34,13.11-1.68,8.54-3.09,17.13-4.62,25.7h0c-.65.41-1.71.69-1.88,1.25-1.06,3.38-1.91,6.83-2.77,10-5.09.9-9.88,2.55-14.64,2.47-24.45-.41-49,1.77-73.37-1.77-6.63-1-14.77-9.11-15.63-15.73C-1.06,167.1,2.8,157.72,4.82,148c1.44-6.91,3.73-13.65,5.62-20.47,1-3.42,1.21-7.22,2.91-10.21A23.89,23.89,0,0,0,16.24,101.72Z"/><path class="cls-1" d="M333.75,95.14c-2.34,7.73-4.81,15.43-7,23.21-2.86,10.16-4.65,20.44-1.49,31.46h-41.1l14.25-55.33c-5.32,0-10.08-.2-14.79.14-1.15.09-2.79,1.8-3.15,3.07-4.11,14.7-8.2,29.42-11.92,44.23-2,8.08-1.83,8.28-9.94,8.3H238.14c-1.77,0-3.54-.27-6-.48,1.57-6.17,3-11.75,4.42-17.31Q250.29,80.18,264.13,28c.84-3.12,2.85-5.93,4.32-8.88,4.87-3.89,9.78-7.76,14.6-11.73A8.11,8.11,0,0,0,284.44,5c5.32-1.61,10.6-4.43,16-4.61,17.63-.59,35.29-.23,52.93-.19a25.91,25.91,0,0,1,4.07.8l-16,62.34h16L340.59,83.16C335.32,85.5,334.34,90.21,333.75,95.14ZM289.2,63c5.81,0,10.73.16,15.63-.14,1,0,2.3-1.73,2.62-2.9q4-14.34,7.5-28.79c.26-1.05-.08-2.94-.81-3.43-5.18-3.41-15.67.68-17.5,6.67-.53,1.74-1,3.51-1.43,5.27C293.28,47.17,291.36,54.64,289.2,63Z"/><path class="cls-1" d="M476.37.44c2.11-.16,3.73-.39,5.36-.39,19.49,0,39-.09,58.48,0a38.73,38.73,0,0,1,10.31,1.52c12.81,3.67,15.63,15.49,12.92,26.3-3.55,14.18-7.25,28.32-11,42.45-4.94,18.8-9.78,37.62-15,56.34-4.94,17.78-13.56,22.56-30.25,23.21-20,.79-40,.21-60,.34-3.46,0-3.83-1.35-3-4.32,4.4-16.68,8.64-33.4,13-50.09,6.19-23.63,12.68-47.18,18.52-70.89,1.4-5.68.81-11.86,1-17.82A55.23,55.23,0,0,0,476.37.44Zm36.11,84.64c3-4,4.63-8.3,3.8-13.35a.76.76,0,0,1,.06-.69c.57-.28,1.54-.45,1.66-.87,1.55-5.43,2.92-10.91,4.46-16.35,1.58-5.6,3-11.29,5.06-16.71,1.6-4.14.89-6.57-3.32-7.93-4-.29-7.92-.91-11.85-.7-1.36.07-3.43,1.94-3.81,3.36-7.24,26.92-14.28,53.9-21.3,80.87a55.81,55.81,0,0,0-.86,6.45h8c7.4-.16,9-1.23,11-8.15,2.58-8.61,4.76-17.28,7.1-25.93Z"/><path class="cls-1" d="M218.17,0h29.91c8.92,0,9,0,6.75,8.82q-13.8,53-27.7,106c-2.69,10.29-5.45,20.55-8,30.88-.76,3.12-2.23,4.44-5.47,4.42-18-.1-36,.3-54-.19-15.28-.42-24.47-13.73-20.56-29.14C144.38,100,150,79.34,155.35,58.58c3.2-12.36,6.77-24.68,9.13-37.21,1.23-6.54.21-13.51.21-20.84h40c-.89,4.21-1.55,8.2-2.58,12.1Q190.59,56,179,99.32c-.86,3.21-1.72,6.43-2.3,9.7-.9,5.16,1.12,7.54,6.33,7.7,2.82.08,5.64,0,9,0,2.08-7.57,4.24-15,6.19-22.54C204,72,210,49.85,215.23,27.52,217.2,19,217.17,10,218.17,0Z"/><path class="cls-3" d="M129.24,246.64c-5.37-.76-11.08-.62-16-2.5-6-2.27-8.34-8.19-6.5-15.08,4.86-18.25,9.85-36.5,15.56-54.5,3-9.36,10.51-14.48,20.4-14.71a245.37,245.37,0,0,1,25.28,1c4.78.38,6.9,4,6.58,8.44a80.9,80.9,0,0,1-2.26,14.17c-4.06,15.9-8.18,31.79-12.71,47.56-3,10.29-9.3,14.53-20.75,15-3.16.12-6.33,0-9.49,0Zm17.88-70.5c-3.32-.37-7.18-.29-8.41,4.24-3.94,14.55-7.66,29.15-11.46,43.74-.86,3.29.72,4.51,3.85,4.72,9,.61,10.82-.79,13-9.7q4.41-17.82,9.18-35.55c1.81-6.63,1.33-7.41-6.16-7.45Z"/><path class="cls-3" d="M414.05,192.48c-.79,3.66-1.23,6.44-2,9.13-2.16,7.44-2.21,7.45-10.08,7.52-4.66,0-9.32-.12-14,.06-1.3,0-3.39.67-3.72,1.56-1.76,4.67-3.07,9.51-4.85,15.33h28.14c-1.58,6.41-2.85,12-4.42,17.52a3.82,3.82,0,0,1-2.8,2.17c-14.75.14-29.5.1-45,.1,1.42-6.34,2.51-11.81,3.89-17.21,4.87-19,9.9-37.85,14.69-56.82a16.88,16.88,0,0,0,.1-7.9c-1-4.06,1-4.62,4.05-4.63,13.3,0,26.61.06,39.91-.1,4.13,0,5.06,1.6,3.72,5.17-.17.45-.59.82-.75,1.28-1.22,3.56-1.41,8.62-3.89,10.29-2.81,1.88-7.66.73-11.63.88h-3c-10.55,0-10.42,0-12.66,10.53-.78,3.7.41,4.87,4,4.77,5-.14,10-.08,15,0C410.28,192.1,411.88,192.32,414.05,192.48Z"/><path class="cls-1" d="M793.13,196.22c3.34-13.78,6.33-26.53,9.7-39.18.3-1.11,3.08-2.19,4.73-2.22,12.49-.17,25-.09,37.48,0,14.44,0,16.08-1.22,19.66-15.39,3-11.83,3-11.79-7-19.21-10.22-7.67-20.34-15.46-30.57-23.11-2.3-1.71-3.07-3.52-2.34-6.39,5.16-20.11,10-40.33,15.34-60.38,5-18.42,18.45-27.92,34.73-29C899.58-.33,924.45.42,949.26.2a10.92,10.92,0,0,1,2.55.73c-1.23,5.66-2.38,11.28-3.71,16.86-1.58,6.62-3.58,13.14-4.88,19.81-.76,3.9-2.78,4.56-6.23,4.53-13.82-.13-27.65-.08-41.48,0-9,0-11.06,1.32-13.38,10-5.47,20.47-7.17,13.13,9,26.36,8.83,7.24,18.17,13.88,27.4,20.62,2.23,1.63,2.78,3.18,2.1,5.84-3.78,14.78-7.27,29.63-11.1,44.4-2,7.84-3.91,15.81-6.95,23.28-5.51,13.56-16.84,20.74-30.72,22.24-14.33,1.55-28.89,1.1-43.36,1.31C817.06,196.35,805.61,196.22,793.13,196.22Z"/><path class="cls-1" d="M705.36,150c2.92-11.46,5.5-21.73,8.15-32q9.53-36.9,19.13-73.8c1.46-5.62,3.69-11.13,4.47-16.85,1-7.64,1-15.43,1.47-23.16.06-1.12,0-2.25,0-3.77,1.89-.13,3.51-.33,5.14-.33,18.83,0,37.66-.06,56.49.06A55.27,55.27,0,0,1,812.1,1.31c12.15,2.79,17,11,13.75,24.28-4.38,18.1-9.35,36-14,54.08C807.57,96.4,803,113.09,799.42,130c-1.31,6.12-.21,12.76-.21,20.12H778.73c-5.17,0-10.33.06-15.49,0s-5.9-1-4.62-6c2.26-8.85,4.7-17.65,7-26.48q10.5-40,20.93-80c1.76-6.79.3-8.58-6.48-8.7h-1c-7.79,0-7.85,0-9.8,7.38q-14.44,54.93-28.93,109.88c-.39,1.46-2,3.68-3.07,3.71C727.06,150.15,716.79,150,705.36,150Z"/><path class="cls-3" d="M664.33,201.93c-3.77,3.43-7.63,6.67-8.87,12.08-1.19,5.16-3.29,10.13-4.33,15.31-1,5-1.16,10.08-1.72,15.55H627.88c1.88-7.26,3.62-13.93,5.35-20.61.38-1.44.83-2.87,1.1-4.33,1.24-6.79,1-6.92-5.88-6.76-2.69.06-3.73,1-4.32,3.58-1.8,7.74-3.92,15.42-5.79,23.15-.89,3.65-2.55,5.79-6.79,5.44s-8.25-.07-12.77-.07l-.43-5.24q6-22.56,12.09-45.13c1.72-6.42,3.14-12.94,5.3-19.21,3.61-10.45,12.55-16.53,23.53-16.54,9.15,0,18.31.06,27.47.11a14.63,14.63,0,0,1,2.33.56c-2.21,9.45-4.41,18.84-6.62,28.23-.78,2.33-1.57,4.65-2.43,7.2l6.82,1.47C665.85,198.79,665.09,200.36,664.33,201.93Zm-34.29-7,1.25,1.51c3.05-.79,8-.72,8.82-2.54,2.64-5.65,3.74-12,5.43-18.12l-1.46-1.44c-2.93.9-7.58,1-8.48,2.87C633,182.78,631.78,189,630,195Z"/><path class="cls-3" d="M724.38,174c-5.77,8.07-11.69,16-17.15,24.31-.92,1.39-.24,4.19.32,6.17,3.41,12,7,23.88,10.52,35.83a36.25,36.25,0,0,1,.57,4.89c-5.75,0-11.15.23-16.5-.18-1.16-.09-2.6-2.31-3.1-3.82-1.72-5.18-3-10.5-4.61-15.74-.44-1.49-1.19-2.89-2.2-5.29-5.6,8-10.54,15.18-15.59,22.26-.79,1.11-2,2.59-3.15,2.64-5.58.27-11.19.13-18.36.13,3.63-6.16,6.56-11.11,9.49-16.07a.71.71,0,0,0,.18-.79h.05c4.41-5.92,8.56-12,13.28-17.69,6.53-7.8,9-15.71,4.43-25.61-3.49-7.54-5.67-15.69-8.57-24h10.44a25.8,25.8,0,0,0,3.83,1.91c2.67.84,5.43,1.44,8.15,2.13a1.25,1.25,0,0,1,.12.81c0,2.12-.54,4.41.11,6.31s2.45,3.27,3.75,4.88h0l.81,1.52,1.22-1.56h0c4.6-2.36,7-6.27,7.85-11.22l.76-1c1.08-.46,2.19-.86,3.22-1.41,1.38-.74,2.66-2.24,4-2.31,10.46-.6,10.46-.52,8.15,9h0L724.3,173v1Z"/><path class="cls-3" d="M556.18,206.09c.15-1.25.3-2.49.44-3.73.56-1.78,1.12-3.55,1.67-5.33a1.41,1.41,0,0,0,.18-1c2.28-10.46,4.48-20.94,6.93-31.36.41-1.72,1.83-4.45,3-4.53,5.9-.46,11.86-.22,18.9-.22-6.06,23.4-11.88,45.85-17.89,69.08h5.1l4-.21h9.92l3,.22h1l1.83.08.24,6.89a2.33,2.33,0,0,0-.13,1L592.48,244a2,2,0,0,0-.16.83l-45.84.09V243q1-4,2-8a.86.86,0,0,0,.14-.74c.57-2.08,1.14-4.17,1.72-6.25a7.57,7.57,0,0,1,.13-1c.6-2,1.19-4,1.79-6l.22-2q.94-3.51,1.91-7c.07-.59.15-1.17.22-1.76Z"/><path class="cls-3" d="M551.08,200.91a.55.55,0,0,0-.61.24l-1.89,1.93-.09.11-2,2.86h0l-4,6h0c-.61,1.69-1.23,3.38-1.84,5.08-2.69,8.86-6.5,17.53-4.25,28h-23c2.55-10.62,5-20.77,7.42-30.92-9-1.94-9.73-1.56-11.77,6-2,7.22-3.67,14.49-5.71,21.68-.39,1.36-1.77,3.4-2.79,3.46-5.53.35-11.08.17-17.6.17,2.82-10.84,5.41-20.73,8-30.62q4.83-18.77,9.67-37.54a24.31,24.31,0,0,1,22.5-18.07c9.31-.3,18.64,0,27.95-.21,3.19-.06,3.56,1.6,3.43,4-2.68,9.79-5.45,19.55-7.88,29.39-.22.91,1.54,3.06,2.74,3.41,1.9.55,3.62.56,3.12,3.2a.44.44,0,0,0-.16.56Zm-35.28-6.38c.47.55.93,1.11,1.4,1.67,2.93-.54,7.8-.26,8.44-1.77,2.51-5.91,3.67-12.39,5.34-18.66l-1.73-1.57c-2.83,1.11-7.2,1.47-8.18,3.48-2.55,5.23-3.61,11.18-5.27,16.85Z"/><path class="cls-3" d="M444.52,167.15c5.45-6,12.34-7.77,20.23-7.43,8.15.34,16.32.2,24.47,0,4-.07,4.8,1.35,3.86,5.14-3.28,13.11-3.17,13.06-16.91,13.2-4.62,0-10.24-1-13.55,1.28-2.92,2-3.53,7.71-4.7,11.91-2.76,9.9-5.19,19.89-7.87,29.82-.68,2.52-1,4.81,2.15,5.51s6.55,1,7.5-3.3c2.3-10.51,4.49-21,6.72-31.56.13-.63.22-1.28.4-2.31h20.54c-1.91,7.89-3.65,15.4-5.55,22.88-2.41,9.48-5,18.91-7.38,28.41-.81,3.31-2.12,5-5.93,4.9-10-.19-20,.5-29.93.05-11-.5-14.58-6.1-11.5-16.79q8.67-30.15,17.39-60.29a6.81,6.81,0,0,0,.08-1.49Z"/><path class="cls-4" d="M462.48,193.59c1.92,4.3.59,9.15-.91,12.9-2.19,5.5-1.9,12.64-7.22,16.6l-1.55-.73q3.69-14.46,7.39-28.92Z"/><path class="cls-1" d="M700.41,85c-2.28,6.35-4.88,12.61-6.76,19.08-2.78,9.54-5.48,19.14-7.34,28.88-1,5.25-.18,10.85-.18,16.75H646.85c4.74-18.44,9.37-36.41,14.24-55.34-5.81,0-10.59-.2-15.32.14-1.16.08-2.86,1.75-3.19,3-4.24,15.68-8.42,31.37-12.27,47.14-1,4.23-3,5.62-7.21,5.5-9.1-.25-18.21-.07-28-.07.34-2.26.43-3.71.79-5.08q8.94-34,17.93-67.9C618,61.2,622,45.24,626.23,29.37s21-29,37.64-29.19C680.7,0,697.53.18,714.36.09c4.46,0,5.43,1.28,4.21,5.65-4,14.23-7.59,28.58-11.32,42.89-.37,1.44-.59,2.92-.89,4.38q-1.53,4.79-3,9.58c2.51.74,5,1.41,7.53,2.25,1.93.66,3.79,1.53,5.68,2.31h0L710.5,73C706.21,76.27,701.33,79,700.41,85ZM652,62.74c2.55.18,4.17.38,5.79.4,11.22.16,11.34.18,14.2-10.33,2.24-8.21,4.13-16.52,6.35-25.47-4.12,0-7.46-.33-10.7.07A9.8,9.8,0,0,0,658.77,35c-1.33,4.94-2.64,9.89-3.87,14.86C653.89,54,653,58.09,652,62.74Z"/><path class="cls-3" d="M738.55,173.12c.68-3,1.83-6,1.9-9,.08-3.37,1.35-4.34,4.46-4.24,5,.15,9.91,0,15.54,0-2.4,9.56-4.59,18.33-6.8,27.1-.53,2.09-1.19,4.15-1.65,6.26-.62,2.76-2.52,6,2.24,7.11,5.56,1.34,8.27.09,9.46-4.75,2.83-11.51,5.57-23,8.54-35.38,4.16,0,9.44-.16,14.69.16.89.05,2.2,2.09,2.36,3.34.22,1.72-.46,3.55-.76,5.33a1.22,1.22,0,0,0-.13.88l-1.83,6.13c-4.69,17.73-9.31,35.47-14.14,53.16-.76,2.77-2.48,5.28-3.75,7.91l-15.24,8h-2.86L722.39,244v-5h0a15.33,15.33,0,0,1,2.16-3.69c1.79-1.76,3.79-4.4,5.87-4.57,6-.47,12.15.23,18.23.18,1.26,0,2.51-1.28,3.77-2,5-2.59,4.3-7.69,5.83-13-3.48,0-6.4.07-9.3,0a65.57,65.57,0,0,1-9.4-.61c-8.14-1.48-10.66-5.78-8.42-13.94,2.19-8,4.46-15.93,6.64-23.91C738.16,176.08,738.3,174.59,738.55,173.12Z"/><path class="cls-3" d="M348.4,225c-1.3,2-3,3.92-3.79,6.15-1.17,3.52-1.36,7.37-2.6,10.85-.47,1.32-2.66,2.62-4.2,2.81-3.43.42-6.94.13-11.09.13.59-5.26,1.14-10.14,1.68-15a1.72,1.72,0,0,1,.13-.87l1.86-6.08h0c4.07-1.82,1.25-5.38,2-8v-4.83c-11.39-3.77-15.17-1.63-16,8.87l-5.83,22.09a1.33,1.33,0,0,0-.13.9c-1.77,1.09-3.47,2.93-5.32,3.11-4.58.45-9.24.15-14.39.15,5.24-28.81,16.24-55.72,19.06-85H331l-4.69,20.57-3.82,12.68c5,0,9.35.2,13.61-.16.88-.07,2-2.12,2.3-3.42,1.76-8.9,3.24-17.86,5.05-26.75.24-1.2,1.75-3,2.74-3,6.1-.28,12.21-.14,18.51-.14-.12,2.36-.2,4.17-.29,6-2.62,9.24-5.32,18.46-7.83,27.74C353.73,204.14,351.11,214.59,348.4,225Z"/><path class="cls-3" d="M250.56,229.1a1.2,1.2,0,0,0,.19-.73c1.83-6.15,3.8-12.25,5.46-18.44,2.62-9.78,4.93-19.65,7.62-29.41.9-3.28-.22-4.36-3.22-4.38H248.23c1.3-5.3,2.24-9.91,3.67-14.38.28-.89,2.38-1.7,3.64-1.71,14.81-.13,29.62-.05,44.43-.14,3.41,0,3.94,1.67,3.28,4.44-.07.32-.26.62-.34.94-2.49,10.8-2.49,11-13.61,10.8-3.87-.06-5.58,1.22-6.53,5-5.16,20.08-10.63,40.09-15.77,60.19-.84,3.27-2.32,4.22-5.49,4-4.42-.24-8.86-.06-13.77-.06C248.76,239.4,249.66,234.25,250.56,229.1Z"/><path class="cls-1" d="M546.15,150.05c3.29-12.72,6.27-24.28,9.27-35.82Q564,81.47,572.5,48.71c2.21-8.49,4.92-16.9,6.39-25.52,1.08-6.27.37-12.83.76-19.24.07-1.3,1.5-3.59,2.33-3.6,11.81-.16,23.62,0,35.43.12.27,0,.53.35,1.5,1-1.74,7-3.48,14.4-5.4,21.72Q599.26,77.38,585,131.53c-1.36,5.14-2.54,10.32-4,15.41-.35,1.19-1.65,3-2.55,3C568,150.12,557.47,150.05,546.15,150.05Z"/><path class="cls-2" d="M230.71,161.47c-.94,4.51-1.82,8.68-2.49,11.9a58.62,58.62,0,0,1-6.55,1.25c-4.14.28-8.29.46-12.43.38-3.39-.07-5.78.86-6.83,4.35-1.2,4-2.84,7.91-3.79,12s2.13,7.66,6.48,7.69a70.74,70.74,0,0,1,8.49.09c2.4.31,6-2,6.84,2.56.87,4.93-.89,8.53-5.51,9.12a51.2,51.2,0,0,1-15.43-.75,48.37,48.37,0,0,0-6.73,4.13,7.38,7.38,0,0,0-2.14,4.26c-.88,5.3-1.45,10.65-2.18,16-.91,6.59-4.74,9.56-11.28,8.69-3.64-.49-5.47-2.82-4.56-6.28,3-11.31,6.83-22.32,8.26-34.12,1-8.56,4.7-16.79,6.8-25.26a41.14,41.14,0,0,0,.76-10.38c0-3,.9-4.19,4-4.09,5.66.18,11.34.29,17,0,5.85-.33,11.68-1.24,17.52-1.82A20.75,20.75,0,0,1,230.71,161.47Z"/><path class="cls-5" d="M516.34,71a.76.76,0,0,0-.06.69q-1.92,6.67-3.8,13.35c-2.34,8.65-4.56,17.32-7.06,25.92-2,6.92-3.64,8-11,8.15-2.45,0-4.9,0-8,0a55.81,55.81,0,0,1,.86-6.45q10.5-40.5,21.3-80.87c.38-1.42,2.45-3.29,3.81-3.36,3.93-.21,7.9.41,11.85.7-.84,6.29-1.41,12.63-2.61,18.84C520.11,55.75,518.12,63.37,516.34,71Z"/><path class="cls-6" d="M515.8,194.53c1.66-5.67,2.72-11.62,5.27-16.85,1-2,5.35-2.37,8.18-3.48l1.73,1.57c-1.67,6.27-2.83,12.75-5.34,18.66-.64,1.51-5.51,1.23-8.44,1.77C516.73,195.64,516.27,195.08,515.8,194.53Z"/></g></g></svg>