<?xml version="1.0" encoding="utf-8"?>
<!-- Generator: Adobe Illustrator 22.0.0, SVG Export Plug-In . SVG Version: 6.00 Build 0)  -->
<svg version="1.1" id="Layer_1" xmlns="http://www.w3.org/2000/svg" xmlns:xlink="http://www.w3.org/1999/xlink" x="0px" y="0px"
	 viewBox="0 0 951.8 246.6" style="enable-background:new 0 0 951.8 246.6;" xml:space="preserve">
<style type="text/css">
	.st0{fill:#E50848;}
	.st1{fill:#EB0548;}
	.st2{fill:#E00A48;}
</style>
<title>Asset 1</title>
<g id="Layer_2_1_">
	<g id="Layer_1-2">
		<path class="st0" d="M434.5,125.1c-2.2,8-3,16,0.3,24.6c-2.8,0.2-4.8,0.6-6.9,0.6c-9.2,0-18.3-0.2-27.5,0
			c-4.9,0.1-5.6-1.4-4.4-5.9c4.1-14.9,7.8-29.9,11.7-44.8c0.3-1.2,0.4-2.5,0.8-5.1c-6,0-11.4-0.2-16.8,0.1c-1.1,0.1-2.8,1.8-3.1,3.1
			c-4.2,15.9-8.2,31.8-12.5,47.6c-0.5,1.8-2.6,4.5-4.1,4.5c-10.3,0.4-20.6,0.2-31.7,0.2c1.7-6.4,3.2-12.1,4.7-17.8L364,60.5
			c3.1-11.7,6.4-23.4,8.7-35.2c1.3-6.9,0.9-14.1,0.9-21.2c0-2.7,0.4-4,3.4-4c21,0.1,42,0,63,0.2c3.5,0,7,1.8,10.5,2.8
			c4.4,5.1,8.8,10.2,8.4,17.6c-0.2,3.1-0.2,6.2-0.4,9.4c-1.3,5.3-2.5,10.7-3.8,16c0,0.3-0.1,0.7-0.1,1l-3.9,15l-0.1,1
			c-0.7,2-1.3,4-2,5.9l0,0l-7.2,3.8c-0.3,0-0.5,0-0.7,0.2l-3.3,1.7c-0.3,0-0.5,0.1-0.7,0.3c-3,0.1-5.4,1.4-3.2,4.5
			c2.6,3.8,6.2,7,9.4,10.4l-0.1,3C439.9,103.7,437.2,114.4,434.5,125.1z M398.6,63.2c5,0,9.8-0.2,14.5,0c3,0.1,4.5-1.1,5.2-4
			c1.8-7.4,3.9-14.7,5.8-22.1c1.9-7.7,0.1-10-7.9-9.9c-1.7,0-3.3,0.1-5,0c-3-0.3-4.6,1-5.3,3.9c-2.4,9.3-4.9,18.5-7.3,27.8
			C398.5,60.3,398.5,61.7,398.6,63.2z"/>
		<path class="st1" d="M16.2,101.7c-0.1-0.2,0-0.5,0.2-0.7c1.3-2.2,3.2-4.3,3.9-6.8c1.8-6.1,2.9-12.3,4.5-18.4s3.9-12,5.5-18
			c1.7-6.4,1.7-13.6,4.6-19.3c4.2-8.3,5.2-17.8,12.8-25C53.6,8,60,4.1,67,3.5c18.2-1.6,36.7-1.9,55-2.2c6.8-0.1,13.7,1.1,20.5,1.6
			c1.2,0.1,2.5-0.5,3.8-0.7s2.4-0.3,3.6-0.4c-0.2,1.2-0.4,2.4-0.6,3.6c-0.3,1.8-0.6,3.5-0.8,5.3c-0.1,2-0.3,3.9-0.7,5.9
			c-1,4.4-2.8,8.8-3.3,13.2c-1.1,9.2-3.1,11.3-12.4,11.3c-11.5,0-23-0.2-34.5,0.1c-3.9,0.1-7.2-1.8-11.7-0.5
			c-10.4,3-12.3,4.2-13.7,15.2c-0.5,4.2-1.3,8.3-2.4,12.3c-3,10.4-6.4,20.7-9.4,31.1c-2.2,7.6-3.9,15.3-5.9,23c-0.8,3-1.6,6-2.2,9
			c-0.9,4.3-1.2,8.8-2.5,12.9c-1.9,6.2,0.9,10.7,7.3,10.8c3.8,0.2,7.7,0.2,11.5-0.1c1.9-0.2,4.6-1.2,5.3-2.6c1.4-3,1.7-6.4,2.5-9.7
			c2.6-9.8,5.3-19.6,7.9-29.4c1.5-5.8,3-11.6,4.4-17.4c1.4-5.6,2.6-11.3,3.4-17.1c0.3-2.9-0.9-5.9-1.5-9.2h43.8
			c-0.2,2.8,0,5.1-0.6,7.3c-1.7,7.1-3.7,14.1-5.5,21.2c-1.3,5-2.9,9.9-3.8,15c-1.1,6-5.6,11.3-4.3,17.9c0.1,0.7-0.6,1.5-0.9,2.2
			c-1,3.1-2.1,6.1-2.9,9.3c-1.2,4.3-2.5,8.7-3.3,13.1c-1.7,8.5-3.1,17.1-4.6,25.7l0,0c-0.7,0.4-1.7,0.7-1.9,1.2
			c-1.1,3.4-1.9,6.8-2.8,10c-5.1,0.9-9.9,2.6-14.6,2.5c-24.5-0.4-49,1.8-73.4-1.8c-6.6-1-14.8-9.1-15.6-15.7
			c-1.3-10.3,2.5-19.7,4.5-29.4c1.4-6.9,3.7-13.6,5.6-20.5c1-3.4,1.2-7.2,2.9-10.2C16.1,112.6,17.1,107.1,16.2,101.7z"/>
		<path class="st0" d="M333.8,95.1c-2.3,7.7-4.8,15.4-7,23.2c-2.9,10.2-4.6,20.4-1.5,31.5h-41.1l14.2-55.3c-5.3,0-10.1-0.2-14.8,0.1
			c-1.1,0.1-2.8,1.8-3.1,3.1c-4.1,14.7-8.2,29.4-11.9,44.2c-2,8.1-1.8,8.3-9.9,8.3h-20.5c-1.8,0-3.5-0.3-6-0.5
			c1.6-6.2,3-11.8,4.4-17.3c9.2-34.8,18.3-69.6,27.6-104.4c0.8-3.1,2.9-5.9,4.3-8.9c4.9-3.9,9.8-7.8,14.6-11.7
			c0.6-0.7,1.1-1.5,1.4-2.4c5.3-1.6,10.6-4.4,16-4.6c17.6-0.6,35.3-0.2,52.9-0.2c1.4,0.2,2.7,0.4,4.1,0.8l-16,62.3h16l-16.9,19.8
			C335.3,85.5,334.3,90.2,333.8,95.1z M289.2,63c5.8,0,10.7,0.2,15.6-0.1c1,0,2.3-1.7,2.6-2.9c2.7-9.6,5.2-19.2,7.5-28.8
			c0.3-1-0.1-2.9-0.8-3.4c-5.2-3.4-15.7,0.7-17.5,6.7c-0.5,1.7-1,3.5-1.4,5.3C293.3,47.2,291.4,54.6,289.2,63z"/>
		<path class="st0" d="M476.4,0.4c2.1-0.2,3.7-0.4,5.4-0.4c19.5,0,39-0.1,58.5,0c3.5,0,7,0.6,10.3,1.5c12.8,3.7,15.6,15.5,12.9,26.3
			c-3.5,14.2-7.2,28.3-11,42.5c-4.9,18.8-9.8,37.6-15,56.3c-4.9,17.8-13.6,22.6-30.2,23.2c-20,0.8-40,0.2-60,0.3
			c-3.5,0-3.8-1.4-3-4.3c4.4-16.7,8.6-33.4,13-50.1c6.2-23.6,12.7-47.2,18.5-70.9c1.4-5.7,0.8-11.9,1-17.8
			C476.7,4.9,476.6,2.6,476.4,0.4z M512.5,85.1c3-4,4.6-8.3,3.8-13.3c-0.1-0.2-0.1-0.5,0.1-0.7c0.6-0.3,1.5-0.4,1.7-0.9
			c1.5-5.4,2.9-10.9,4.5-16.3c1.6-5.6,3-11.3,5.1-16.7c1.6-4.1,0.9-6.6-3.3-7.9c-4-0.3-7.9-0.9-11.8-0.7c-1.4,0.1-3.4,1.9-3.8,3.4
			c-7.2,26.9-14.3,53.9-21.3,80.9c-0.4,2.1-0.7,4.3-0.9,6.4h8c7.4-0.2,9-1.2,11-8.2C508,102.4,510.1,93.7,512.5,85.1z"/>
		<path class="st0" d="M218.2,0h29.9c8.9,0,9,0,6.8,8.8c-9.2,35.3-18.4,70.7-27.7,106c-2.7,10.3-5.4,20.5-8,30.9
			c-0.8,3.1-2.2,4.4-5.5,4.4c-18-0.1-36,0.3-54-0.2c-15.3-0.4-24.5-13.7-20.6-29.1c5.3-20.8,10.9-41.4,16.2-62.2
			c3.2-12.4,6.8-24.7,9.1-37.2c1.2-6.5,0.2-13.5,0.2-20.8h40c-0.9,4.2-1.6,8.2-2.6,12.1c-7.7,28.9-15.4,57.8-23.1,86.7
			c-0.9,3.2-1.7,6.4-2.3,9.7c-0.9,5.2,1.1,7.5,6.3,7.7c2.8,0.1,5.6,0,9,0c2.1-7.6,4.2-15,6.2-22.5c5.8-22.2,11.8-44.3,17-66.7
			C217.2,19,217.2,10,218.2,0z"/>
		<path class="st2" d="M129.2,246.6c-5.4-0.8-11.1-0.6-16-2.5c-6-2.3-8.3-8.2-6.5-15.1c4.9-18.2,9.8-36.5,15.6-54.5
			c3-9.4,10.5-14.5,20.4-14.7c8.4-0.1,16.9,0.2,25.3,1c4.8,0.4,6.9,4,6.6,8.4c-0.3,4.8-1.1,9.5-2.3,14.2
			c-4.1,15.9-8.2,31.8-12.7,47.6c-3,10.3-9.3,14.5-20.8,15c-3.2,0.1-6.3,0-9.5,0L129.2,246.6z M147.1,176.1
			c-3.3-0.4-7.2-0.3-8.4,4.2c-3.9,14.6-7.7,29.1-11.5,43.7c-0.9,3.3,0.7,4.5,3.8,4.7c9,0.6,10.8-0.8,13-9.7
			c2.9-11.9,6-23.7,9.2-35.6C155.1,177,154.6,176.2,147.1,176.1L147.1,176.1z"/>
		<path class="st2" d="M414,192.5c-0.8,3.7-1.2,6.4-2,9.1c-2.2,7.4-2.2,7.4-10.1,7.5c-4.7,0-9.3-0.1-14,0.1c-1.3,0-3.4,0.7-3.7,1.6
			c-1.8,4.7-3.1,9.5-4.9,15.3h28.1c-1.6,6.4-2.9,12-4.4,17.5c-0.5,1.1-1.6,1.9-2.8,2.2c-14.8,0.1-29.5,0.1-45,0.1
			c1.4-6.3,2.5-11.8,3.9-17.2c4.9-19,9.9-37.9,14.7-56.8c0.7-2.6,0.7-5.3,0.1-7.9c-1-4.1,1-4.6,4-4.6c13.3,0,26.6,0.1,39.9-0.1
			c4.1,0,5.1,1.6,3.7,5.2c-0.2,0.4-0.6,0.8-0.8,1.3c-1.2,3.6-1.4,8.6-3.9,10.3c-2.8,1.9-7.7,0.7-11.6,0.9h-3
			c-10.5,0-10.4,0-12.7,10.5c-0.8,3.7,0.4,4.9,4,4.8c5-0.1,10-0.1,15,0C410.3,192.1,411.9,192.3,414,192.5z"/>
		<path class="st0" d="M793.1,196.2c3.3-13.8,6.3-26.5,9.7-39.2c0.3-1.1,3.1-2.2,4.7-2.2c12.5-0.2,25-0.1,37.5,0
			c14.4,0,16.1-1.2,19.7-15.4c3-11.8,3-11.8-7-19.2c-10.2-7.7-20.3-15.5-30.6-23.1c-2.3-1.7-3.1-3.5-2.3-6.4
			c5.2-20.1,10-40.3,15.3-60.4c5-18.4,18.5-27.9,34.7-29c24.7-1.7,49.6-0.9,74.4-1.1c0.9,0.1,1.7,0.4,2.5,0.7
			c-1.2,5.7-2.4,11.3-3.7,16.9c-1.6,6.6-3.6,13.1-4.9,19.8c-0.8,3.9-2.8,4.6-6.2,4.5c-13.8-0.1-27.7-0.1-41.5,0
			c-9,0-11.1,1.3-13.4,10c-5.5,20.5-7.2,13.1,9,26.4c8.8,7.2,18.2,13.9,27.4,20.6c2.2,1.6,2.8,3.2,2.1,5.8
			c-3.8,14.8-7.3,29.6-11.1,44.4c-2,7.8-3.9,15.8-7,23.3c-5.5,13.6-16.8,20.7-30.7,22.2c-14.3,1.6-28.9,1.1-43.4,1.3
			C817.1,196.4,805.6,196.2,793.1,196.2z"/>
		<path class="st0" d="M705.4,150c2.9-11.5,5.5-21.7,8.2-32c6.4-24.6,12.7-49.2,19.1-73.8c1.5-5.6,3.7-11.1,4.5-16.9
			c1-7.6,1-15.4,1.5-23.2c0.1-1.1,0-2.2,0-3.8c1.9-0.1,3.5-0.3,5.1-0.3c18.8,0,37.7-0.1,56.5,0.1c4,0,8,0.3,11.9,1.2
			c12.2,2.8,17,11,13.8,24.3c-4.4,18.1-9.3,36-14,54.1c-4.3,16.7-8.8,33.4-12.4,50.3c-1.3,6.1-0.2,12.8-0.2,20.1h-20.5
			c-5.2,0-10.3,0.1-15.5,0s-5.9-1-4.6-6c2.3-8.9,4.7-17.7,7-26.5c7-26.7,14-53.3,20.9-80c1.8-6.8,0.3-8.6-6.5-8.7h-1
			c-7.8,0-7.8,0-9.8,7.4c-9.6,36.6-19.3,73.2-28.9,109.9c-0.4,1.5-2,3.7-3.1,3.7C727.1,150.1,716.8,150,705.4,150z"/>
		<path class="st2" d="M664.3,201.9c-3.8,3.4-7.6,6.7-8.9,12.1c-1.2,5.2-3.3,10.1-4.3,15.3c-1,5-1.2,10.1-1.7,15.6h-21.5
			c1.9-7.3,3.6-13.9,5.3-20.6c0.4-1.4,0.8-2.9,1.1-4.3c1.2-6.8,1-6.9-5.9-6.8c-2.7,0.1-3.7,1-4.3,3.6c-1.8,7.7-3.9,15.4-5.8,23.1
			c-0.9,3.6-2.5,5.8-6.8,5.4s-8.2-0.1-12.8-0.1l-0.4-5.2c4-15,8-30.1,12.1-45.1c1.7-6.4,3.1-12.9,5.3-19.2
			c3.6-10.4,12.5-16.5,23.5-16.5c9.2,0,18.3,0.1,27.5,0.1c0.8,0.1,1.6,0.3,2.3,0.6c-2.2,9.4-4.4,18.8-6.6,28.2
			c-0.8,2.3-1.6,4.6-2.4,7.2l6.8,1.5C665.8,198.8,665.1,200.4,664.3,201.9z M630,194.9l1.2,1.5c3-0.8,8-0.7,8.8-2.5
			c2.6-5.6,3.7-12,5.4-18.1l-1.5-1.4c-2.9,0.9-7.6,1-8.5,2.9C633,182.8,631.8,189,630,194.9L630,194.9z"/>
		<path class="st2" d="M724.4,174c-5.8,8.1-11.7,16-17.2,24.3c-0.9,1.4-0.2,4.2,0.3,6.2c3.4,12,7,23.9,10.5,35.8
			c0.3,1.6,0.5,3.2,0.6,4.9c-5.8,0-11.2,0.2-16.5-0.2c-1.2-0.1-2.6-2.3-3.1-3.8c-1.7-5.2-3-10.5-4.6-15.7c-0.4-1.5-1.2-2.9-2.2-5.3
			c-5.6,8-10.5,15.2-15.6,22.3c-0.8,1.1-2,2.6-3.2,2.6c-5.6,0.3-11.2,0.1-18.4,0.1c3.6-6.2,6.6-11.1,9.5-16.1
			c0.2-0.2,0.3-0.5,0.2-0.8h0c4.4-5.9,8.6-12,13.3-17.7c6.5-7.8,9-15.7,4.4-25.6c-3.5-7.5-5.7-15.7-8.6-24h10.4
			c1.2,0.7,2.5,1.4,3.8,1.9c2.7,0.8,5.4,1.4,8.2,2.1c0.1,0.2,0.2,0.5,0.1,0.8c0,2.1-0.5,4.4,0.1,6.3s2.5,3.3,3.8,4.9l0,0l0.8,1.5
			l1.2-1.6l0,0c4.6-2.4,7-6.3,7.8-11.2l0.8-1c1.1-0.5,2.2-0.9,3.2-1.4c1.4-0.7,2.7-2.2,4-2.3c10.5-0.6,10.5-0.5,8.2,9l0,0l-2.1,2.9
			L724.4,174L724.4,174z"/>
		<path class="st2" d="M556.2,206.1c0.2-1.2,0.3-2.5,0.4-3.7c0.6-1.8,1.1-3.6,1.7-5.3c0.2-0.3,0.2-0.7,0.2-1
			c2.3-10.5,4.5-20.9,6.9-31.4c0.4-1.7,1.8-4.4,3-4.5c5.9-0.5,11.9-0.2,18.9-0.2c-6.1,23.4-11.9,45.8-17.9,69.1h5.1l4-0.2h9.9l3,0.2
			h1l1.8,0.1l0.2,6.9c-0.1,0.3-0.2,0.7-0.1,1l-1.9,7c-0.1,0.3-0.2,0.5-0.2,0.8l-45.8,0.1V243c0.7-2.7,1.3-5.3,2-8
			c0.2-0.2,0.2-0.5,0.1-0.7c0.6-2.1,1.1-4.2,1.7-6.2c0-0.3,0.1-0.7,0.1-1c0.6-2,1.2-4,1.8-6l0.2-2c0.6-2.3,1.3-4.7,1.9-7
			c0.1-0.6,0.2-1.2,0.2-1.8L556.2,206.1z"/>
		<path class="st2" d="M551.1,200.9c-0.2-0.1-0.5,0-0.6,0.2l-1.9,1.9l-0.1,0.1l-2,2.9l0,0l-4,6l0,0c-0.6,1.7-1.2,3.4-1.8,5.1
			c-2.7,8.9-6.5,17.5-4.2,28h-23c2.5-10.6,5-20.8,7.4-30.9c-9-1.9-9.7-1.6-11.8,6c-2,7.2-3.7,14.5-5.7,21.7
			c-0.4,1.4-1.8,3.4-2.8,3.5c-5.5,0.4-11.1,0.2-17.6,0.2c2.8-10.8,5.4-20.7,8-30.6c3.2-12.5,6.4-25,9.7-37.5
			c2.7-10.3,11.8-17.6,22.5-18.1c9.3-0.3,18.6,0,28-0.2c3.2-0.1,3.6,1.6,3.4,4c-2.7,9.8-5.5,19.6-7.9,29.4c-0.2,0.9,1.5,3.1,2.7,3.4
			c1.9,0.6,3.6,0.6,3.1,3.2c-0.2,0.1-0.3,0.4-0.2,0.6L551.1,200.9z M515.8,194.5c0.5,0.6,0.9,1.1,1.4,1.7c2.9-0.5,7.8-0.3,8.4-1.8
			c2.5-5.9,3.7-12.4,5.3-18.7l-1.7-1.6c-2.8,1.1-7.2,1.5-8.2,3.5C518.5,182.9,517.5,188.9,515.8,194.5L515.8,194.5z"/>
		<path class="st2" d="M444.5,167.1c5.5-6,12.3-7.8,20.2-7.4c8.1,0.3,16.3,0.2,24.5,0c4-0.1,4.8,1.4,3.9,5.1
			c-3.3,13.1-3.2,13.1-16.9,13.2c-4.6,0-10.2-1-13.5,1.3c-2.9,2-3.5,7.7-4.7,11.9c-2.8,9.9-5.2,19.9-7.9,29.8
			c-0.7,2.5-1,4.8,2.1,5.5s6.5,1,7.5-3.3c2.3-10.5,4.5-21,6.7-31.6c0.1-0.6,0.2-1.3,0.4-2.3h20.5c-1.9,7.9-3.6,15.4-5.5,22.9
			c-2.4,9.5-5,18.9-7.4,28.4c-0.8,3.3-2.1,5-5.9,4.9c-10-0.2-20,0.5-29.9,0.1c-11-0.5-14.6-6.1-11.5-16.8
			c5.8-20.1,11.6-40.2,17.4-60.3C444.5,168.1,444.6,167.6,444.5,167.1L444.5,167.1z"/>
		<path class="st0" d="M700.4,85c-2.3,6.3-4.9,12.6-6.8,19.1c-2.8,9.5-5.5,19.1-7.3,28.9c-1,5.2-0.2,10.9-0.2,16.8h-39.3
			c4.7-18.4,9.4-36.4,14.2-55.3c-5.8,0-10.6-0.2-15.3,0.1c-1.2,0.1-2.9,1.8-3.2,3c-4.2,15.7-8.4,31.4-12.3,47.1
			c-1,4.2-3,5.6-7.2,5.5c-9.1-0.2-18.2-0.1-28-0.1c0.3-2.3,0.4-3.7,0.8-5.1c6-22.7,11.9-45.3,17.9-67.9c4.2-15.9,8.2-31.9,12.4-47.7
			s21-29,37.6-29.2c16.8-0.2,33.7,0,50.5-0.1c4.5,0,5.4,1.3,4.2,5.7c-4,14.2-7.6,28.6-11.3,42.9c-0.4,1.4-0.6,2.9-0.9,4.4
			c-1,3.2-2,6.4-3,9.6c2.5,0.7,5,1.4,7.5,2.2c1.9,0.7,3.8,1.5,5.7,2.3l0,0l-6.1,5.8C706.2,76.3,701.3,79,700.4,85z M652,62.7
			c2.5,0.2,4.2,0.4,5.8,0.4c11.2,0.2,11.3,0.2,14.2-10.3c2.2-8.2,4.1-16.5,6.3-25.5c-4.1,0-7.5-0.3-10.7,0.1
			c-4.3,0.3-7.9,3.4-8.9,7.6c-1.3,4.9-2.6,9.9-3.9,14.9C653.9,54,653,58.1,652,62.7z"/>
		<path class="st2" d="M738.5,173.1c0.7-3,1.8-6,1.9-9c0.1-3.4,1.3-4.3,4.5-4.2c5,0.1,9.9,0,15.5,0c-2.4,9.6-4.6,18.3-6.8,27.1
			c-0.5,2.1-1.2,4.1-1.7,6.3c-0.6,2.8-2.5,6,2.2,7.1c5.6,1.3,8.3,0.1,9.5-4.8c2.8-11.5,5.6-23,8.5-35.4c4.2,0,9.4-0.2,14.7,0.2
			c0.9,0.1,2.2,2.1,2.4,3.3c0.2,1.7-0.5,3.6-0.8,5.3c-0.2,0.3-0.2,0.6-0.1,0.9l-1.8,6.1c-4.7,17.7-9.3,35.5-14.1,53.2
			c-0.8,2.8-2.5,5.3-3.8,7.9l-15.2,8h-2.9l-28.2-1.1v-5l0,0c0.5-1.3,1.3-2.6,2.2-3.7c1.8-1.8,3.8-4.4,5.9-4.6
			c6-0.5,12.2,0.2,18.2,0.2c1.3,0,2.5-1.3,3.8-2c5-2.6,4.3-7.7,5.8-13c-3.5,0-6.4,0.1-9.3,0c-3.1,0-6.3-0.2-9.4-0.6
			c-8.1-1.5-10.7-5.8-8.4-13.9c2.2-8,4.5-15.9,6.6-23.9C738.2,176.1,738.3,174.6,738.5,173.1z"/>
		<path class="st2" d="M348.4,225c-1.3,2-3,3.9-3.8,6.1c-1.2,3.5-1.4,7.4-2.6,10.9c-0.5,1.3-2.7,2.6-4.2,2.8
			c-3.4,0.4-6.9,0.1-11.1,0.1c0.6-5.3,1.1-10.1,1.7-15c0-0.3,0-0.6,0.1-0.9l1.9-6.1l0,0c4.1-1.8,1.2-5.4,2-8v-4.8
			c-11.4-3.8-15.2-1.6-16,8.9l-5.8,22.1c-0.1,0.3-0.2,0.6-0.1,0.9c-1.8,1.1-3.5,2.9-5.3,3.1c-4.6,0.4-9.2,0.1-14.4,0.1
			c5.2-28.8,16.2-55.7,19.1-85H331l-4.7,20.6l-3.8,12.7c5,0,9.4,0.2,13.6-0.2c0.9-0.1,2-2.1,2.3-3.4c1.8-8.9,3.2-17.9,5-26.8
			c0.2-1.2,1.8-3,2.7-3c6.1-0.3,12.2-0.1,18.5-0.1c-0.1,2.4-0.2,4.2-0.3,6c-2.6,9.2-5.3,18.5-7.8,27.7
			C353.7,204.1,351.1,214.6,348.4,225z"/>
		<path class="st2" d="M250.6,229.1c0.1-0.2,0.2-0.5,0.2-0.7c1.8-6.1,3.8-12.2,5.5-18.4c2.6-9.8,4.9-19.6,7.6-29.4
			c0.9-3.3-0.2-4.4-3.2-4.4h-12.4c1.3-5.3,2.2-9.9,3.7-14.4c0.3-0.9,2.4-1.7,3.6-1.7c14.8-0.1,29.6-0.1,44.4-0.1
			c3.4,0,3.9,1.7,3.3,4.4c-0.1,0.3-0.3,0.6-0.3,0.9c-2.5,10.8-2.5,11-13.6,10.8c-3.9-0.1-5.6,1.2-6.5,5
			c-5.2,20.1-10.6,40.1-15.8,60.2c-0.8,3.3-2.3,4.2-5.5,4c-4.4-0.2-8.9-0.1-13.8-0.1C248.8,239.4,249.7,234.2,250.6,229.1z"/>
		<path class="st0" d="M546.2,150.1c3.3-12.7,6.3-24.3,9.3-35.8c5.7-21.8,11.4-43.7,17.1-65.5c2.2-8.5,4.9-16.9,6.4-25.5
			c1.1-6.3,0.4-12.8,0.8-19.2c0.1-1.3,1.5-3.6,2.3-3.6c11.8-0.2,23.6,0,35.4,0.1c0.3,0,0.5,0.4,1.5,1c-1.7,7-3.5,14.4-5.4,21.7
			c-9.5,36.1-19,72.2-28.5,108.3c-1.4,5.1-2.5,10.3-4,15.4c-0.3,1.2-1.7,3-2.5,3C568,150.1,557.5,150.1,546.2,150.1z"/>
		<path class="st1" d="M230.7,161.5c-0.9,4.5-1.8,8.7-2.5,11.9c-2.2,0.5-4.3,1-6.6,1.2c-4.1,0.3-8.3,0.5-12.4,0.4
			c-3.4-0.1-5.8,0.9-6.8,4.4c-1.2,4-2.8,7.9-3.8,12s2.1,7.7,6.5,7.7c2.8-0.1,5.7-0.1,8.5,0.1c2.4,0.3,6-2,6.8,2.6
			c0.9,4.9-0.9,8.5-5.5,9.1c-5.2,0.5-10.4,0.3-15.4-0.8c-2.4,1.2-4.6,2.6-6.7,4.1c-1.2,1.1-1.9,2.6-2.1,4.3
			c-0.9,5.3-1.4,10.6-2.2,16c-0.9,6.6-4.7,9.6-11.3,8.7c-3.6-0.5-5.5-2.8-4.6-6.3c3-11.3,6.8-22.3,8.3-34.1c1-8.6,4.7-16.8,6.8-25.3
			c0.7-3.4,0.9-6.9,0.8-10.4c0-3,0.9-4.2,4-4.1c5.7,0.2,11.3,0.3,17,0c5.9-0.3,11.7-1.2,17.5-1.8
			C228.2,161.2,229.5,161.3,230.7,161.5z"/>
	</g>
</g>
</svg>
